<svg width="103" height="39" viewBox="0 0 103 39" fill="none" xmlns="http://www.w3.org/2000/svg">
<path d="M23.5337 22.249C25.2481 21.1573 26.357 18.978 26.357 16.5514C26.357 14.8455 25.8196 13.2377 24.843 12.0308C23.8493 10.8026 22.523 10.1245 21.1071 10.1245H9.07642V27.2643H11.3538L17.6826 19.3192L24.0114 27.2643H27.5255L23.5337 22.249ZM23.747 16.5514C23.747 16.722 23.7384 16.8883 23.7171 17.0546C23.6105 18.0057 23.1968 18.8671 22.5827 19.4173C22.3098 19.6646 22.007 19.8395 21.6914 19.9376L17.6826 14.9052L11.6864 22.4324V13.0757H21.1071C21.6359 13.0757 22.1477 13.2847 22.587 13.6813C23.2011 14.2357 23.6148 15.0971 23.7214 16.0482C23.7384 16.2145 23.747 16.3808 23.747 16.5514Z" fill="#006EF2"/>
<path d="M36.4725 16.8158C36.4085 16.2955 36.3147 15.7794 36.2038 15.2719L36.2081 15.2677V15.2293H36.2038C36.1612 15.0331 36.11 14.8412 36.0588 14.645C36.0332 14.5427 36.0162 14.4489 35.982 14.3465C35.9138 14.0736 35.8285 13.7964 35.739 13.5234C35.7006 13.4083 35.6707 13.2931 35.6323 13.1822C35.5684 13.0159 35.5087 12.8496 35.4447 12.6833V12.679C35.4191 12.6108 35.3935 12.5383 35.3679 12.4701C35.3125 12.3251 35.2528 12.18 35.1973 12.0393C35.1163 11.8431 35.0267 11.647 34.9372 11.4551C34.8562 11.2759 34.7709 11.0925 34.6813 10.9134C34.6046 10.7684 34.5235 10.6149 34.4468 10.4699C34.3316 10.2609 34.2165 10.0434 34.097 9.843C34.0331 9.72785 33.9648 9.62123 33.8923 9.50608C33.7473 9.27152 33.6066 9.04123 33.4488 8.8152C33.3934 8.72564 33.3294 8.64461 33.2654 8.55505C33.1375 8.37167 33.0096 8.18828 32.8773 8.00917L32.8646 7.99637L32.8603 8.00064C32.775 7.8855 32.6769 7.77887 32.5874 7.66373C32.5831 7.65946 32.5788 7.65094 32.5746 7.64668C32.5191 7.56991 32.4551 7.50167 32.3954 7.42917C32.2462 7.24579 32.1012 7.05388 31.9434 6.87903V6.87476C29.7769 4.46947 27.0177 2.66551 23.9513 1.6761H23.9343L23.93 1.68463C23.0856 1.41169 22.2241 1.19419 21.3456 1.04492L21.3285 1.04919L21.1921 1.82536L21.2134 1.82962C24.2541 2.34139 27.12 3.65918 29.504 5.64227C29.9944 6.05168 30.455 6.49094 30.9028 6.94299C31.0094 7.0624 31.1288 7.17756 31.2354 7.29697C31.3804 7.45476 31.5126 7.61682 31.6534 7.78314C31.7685 7.91534 31.8794 8.04329 31.986 8.1755C32.1054 8.32476 32.2163 8.47402 32.3272 8.62755C32.4466 8.78961 32.566 8.95166 32.6812 9.11372C32.7707 9.24166 32.856 9.37814 32.9456 9.50608C33.0693 9.70652 33.2015 9.89844 33.3209 10.0989C33.3891 10.2098 33.4488 10.3249 33.5128 10.4358C33.6407 10.6533 33.7644 10.8878 33.8796 11.1139C33.935 11.2162 33.9819 11.3228 34.0331 11.4252C34.1525 11.664 34.2634 11.9028 34.37 12.1459C34.4212 12.2653 34.4638 12.389 34.515 12.5084C34.7751 13.1311 34.9969 13.7708 35.1803 14.4233C35.2656 14.7303 35.3381 15.0417 35.4063 15.353C35.4148 15.3871 35.4234 15.4212 35.4276 15.4553C35.9181 17.7668 35.9394 20.1593 35.4831 22.4622C35.4532 22.6414 35.4148 22.8205 35.3679 22.9911C35.3722 22.9868 35.3807 22.9868 35.3892 22.9868C35.24 23.6393 35.0523 24.2875 34.8306 24.9187C34.7922 24.9144 34.7495 24.9144 34.7026 24.9144C34.0032 24.9144 33.4318 25.4774 33.4318 26.1768C33.4318 26.8762 34.0032 27.4477 34.7026 27.4477C35.402 27.4477 35.965 26.8762 35.965 26.1768C35.965 25.81 35.8072 25.4731 35.5513 25.2386C36.5109 22.5475 36.8265 19.6561 36.4725 16.8158ZM35.4575 26.164C35.4575 26.5819 35.1163 26.9188 34.7026 26.9188C34.2847 26.9188 33.9478 26.5819 33.9478 26.164C33.9478 25.7716 34.2506 25.4475 34.6387 25.4134C34.6557 25.4091 34.6813 25.4091 34.7026 25.4091C34.9756 25.4091 35.2187 25.5541 35.3423 25.7759C35.4191 25.891 35.4575 26.0233 35.4575 26.164Z" fill="#006EF2"/>
<path d="M1.86909 25.166C1.57483 24.3685 1.34454 23.5539 1.17395 22.7351H1.17821V22.7181C0.137628 17.7923 1.29336 12.6832 4.21041 8.70425C4.25306 8.64028 4.30424 8.57632 4.35115 8.51235C4.52174 8.29058 4.70086 8.0688 4.88424 7.84704C4.93968 7.77881 4.99938 7.70631 5.06335 7.63807C5.25953 7.40778 5.46423 7.18602 5.6732 6.96426C5.71158 6.92588 5.74997 6.88323 5.78835 6.84485C6.0485 6.57617 6.31717 6.31602 6.59438 6.06867L6.60717 6.05588V6.05161C6.61144 6.04734 6.61997 6.03881 6.63276 6.03454C7.53688 5.21999 8.51776 4.51206 9.55408 3.915C9.57114 3.90647 9.59246 3.89368 9.60952 3.88515C9.92511 3.70603 10.245 3.53117 10.5733 3.37338C10.7056 3.30941 10.8377 3.25397 10.9742 3.19C11.196 3.08765 11.4177 2.98529 11.6438 2.89146C11.8357 2.8147 12.0319 2.74221 12.228 2.67397C12.4114 2.60574 12.5948 2.53323 12.7867 2.46926C12.8464 2.44794 12.9104 2.43088 12.9701 2.41382C13.6908 2.18353 14.4286 1.99589 15.1835 1.85941C15.3925 2.2603 15.8189 2.53323 16.3008 2.53323C17.0002 2.53323 17.5632 1.96177 17.5632 1.26236C17.5632 0.562949 17.0002 0 16.3008 0C15.6654 0 15.1323 0.469124 15.0427 1.08751C14.3433 1.21545 13.6567 1.3903 12.9786 1.59501C12.9786 1.59074 12.9786 1.58648 12.9786 1.58221C12.8677 1.61633 12.7569 1.65471 12.646 1.68883C12.6119 1.70162 12.5735 1.71015 12.5394 1.72294C12.5095 1.73574 12.4754 1.74427 12.4455 1.7528C12.3219 1.79544 12.2025 1.84662 12.0788 1.88927C11.8272 1.97883 11.5713 2.06838 11.3239 2.17073C11.1448 2.24323 10.9742 2.32853 10.7994 2.4053C10.6032 2.49485 10.4028 2.58015 10.2066 2.67397C9.93364 2.80618 9.66922 2.95544 9.40481 3.10044C9.31952 3.14736 9.22996 3.19426 9.1404 3.24117C7.28952 4.30735 5.63056 5.68911 4.24453 7.3566C3.98439 7.67219 3.73703 7.99632 3.49394 8.3247C3.44703 8.3972 3.39159 8.4697 3.34468 8.53793C3.18689 8.76823 3.02483 8.99425 2.87983 9.22881C2.80307 9.34822 2.73056 9.46763 2.64953 9.59557C2.53439 9.77895 2.42777 9.97513 2.32115 10.1628C2.23586 10.312 2.15057 10.457 2.0738 10.6106C1.98424 10.7854 1.89895 10.9645 1.81792 11.1351C1.74115 11.3015 1.65586 11.4592 1.58336 11.6256C1.46395 11.8942 1.3488 12.1715 1.24218 12.4529C1.16542 12.6448 1.09719 12.8325 1.03322 13.0287C0.960716 13.2334 0.888214 13.4423 0.824243 13.6513C0.777332 13.8048 0.734688 13.9584 0.687777 14.1204C0.649394 14.2484 0.61101 14.3806 0.572628 14.517L0.568359 14.5298L0.57689 14.5341C0.444685 15.0672 0.316745 15.6045 0.231451 16.1547C-0.267519 19.2679 0.0438043 22.4835 1.1313 25.4389L1.13983 25.456L1.88189 25.1788L1.86909 25.166ZM16.288 0.498975C16.7017 0.498975 17.0429 0.840146 17.0429 1.25382C17.0429 1.67176 16.7017 2.00868 16.288 2.00868C16.0663 2.00868 15.8701 1.91485 15.7294 1.76132C15.61 1.62912 15.5332 1.45 15.5332 1.25382C15.5332 1.16 15.5503 1.06192 15.5844 0.980888C15.691 0.703683 15.9639 0.498975 16.288 0.498975Z" fill="#006EF2"/>
<path d="M31.7518 30.2964C29.2143 33.3414 25.7386 35.3842 21.9643 36.1988C21.0943 36.3864 20.2115 36.5058 19.3245 36.557C19.2392 36.5613 19.1582 36.5698 19.0729 36.5741C18.8468 36.5826 18.6208 36.5869 18.399 36.5911C18.301 36.5911 18.2071 36.5911 18.1133 36.5911C17.9299 36.5911 17.7423 36.5869 17.5589 36.5783C17.4224 36.5741 17.2902 36.5613 17.1538 36.5527C16.9107 36.5357 16.6718 36.5186 16.4288 36.493C16.3136 36.4802 16.1985 36.4674 16.0833 36.4504C15.8317 36.4163 15.5758 36.3779 15.3285 36.3395C15.2432 36.3267 15.1621 36.3097 15.0769 36.2926C14.8082 36.2414 14.5395 36.186 14.2793 36.1263C14.2452 36.122 14.2068 36.1135 14.1727 36.1007C14.1642 36.0964 14.1514 36.0964 14.1429 36.0922C13.8444 36.0239 13.5501 35.9386 13.2516 35.8491C13.2217 35.8363 13.1833 35.832 13.1449 35.8192C10.1469 34.8938 7.41318 33.1708 5.25951 30.7655C5.13157 30.6248 5.01216 30.4883 4.89701 30.3476C5.03775 30.1429 5.11451 29.9041 5.11451 29.6439C5.11451 28.9445 4.54304 28.373 3.84363 28.373C3.14422 28.373 2.57275 28.9445 2.57275 29.6439C2.57275 30.3433 3.14422 30.9148 3.84363 30.9148C3.99716 30.9148 4.14216 30.8892 4.27436 30.838C4.40231 30.9958 4.53451 31.1494 4.66672 31.2944C4.99936 31.6654 5.34907 32.0151 5.71157 32.3563C5.70731 32.3563 5.70304 32.3605 5.69878 32.3605C5.83525 32.4927 5.97598 32.6207 6.11672 32.7486C6.26598 32.8851 6.41951 33.0173 6.57304 33.1452C7.55392 33.9641 8.62862 34.672 9.76303 35.2691C9.77582 35.2776 9.78861 35.2819 9.80141 35.2904C10.0829 35.4354 10.3643 35.5761 10.6543 35.7083C10.7226 35.7382 10.7866 35.768 10.8548 35.8022C11.0979 35.9088 11.341 36.0111 11.5841 36.1092C11.6438 36.1305 11.6992 36.1604 11.7589 36.1817C11.8101 36.203 11.8613 36.2158 11.9124 36.2372C12.1342 36.3182 12.3517 36.395 12.5777 36.4717C12.5905 36.476 12.5991 36.4802 12.6119 36.4845V36.4888L12.6374 36.493C12.6545 36.4973 12.6758 36.4973 12.7014 36.5101C12.7398 36.5229 12.7782 36.5314 12.8166 36.5442C13.1108 36.638 13.4093 36.7233 13.7079 36.8001C13.7377 36.8086 13.7676 36.8214 13.7974 36.8257C13.8358 36.8342 13.8785 36.8427 13.9169 36.8513C14.0448 36.8811 14.1685 36.9195 14.2964 36.9494C14.4798 36.992 14.6674 37.0219 14.8508 37.056C14.8764 37.0602 14.902 37.0688 14.9276 37.073C14.9361 37.073 14.9489 37.0773 14.9574 37.0773C15.0299 37.0901 15.1067 37.1072 15.1792 37.1199V37.1242L15.2048 37.1285C15.2261 37.1327 15.2432 37.1285 15.2688 37.137C15.4777 37.1711 15.691 37.1967 15.8999 37.2223C15.9895 37.2351 16.0748 37.2479 16.1643 37.2564C16.2454 37.2692 16.3221 37.2863 16.3989 37.2905C16.5908 37.3076 16.7827 37.3161 16.9746 37.3332C17.0599 37.3417 17.141 37.3502 17.2262 37.3588C17.2604 37.3588 17.2987 37.3588 17.3329 37.3588C17.367 37.3588 17.3968 37.363 17.431 37.3673C17.4779 37.3673 17.5163 37.3758 17.5546 37.3758C17.7039 37.3801 17.8532 37.3758 18.0067 37.3801C18.1261 37.3844 18.2498 37.3929 18.3692 37.3929C18.4545 37.3886 18.5355 37.3886 18.6208 37.3844C18.7232 37.3844 18.8298 37.3758 18.9321 37.3758C18.9364 37.3758 18.9407 37.3758 18.9407 37.3758C19.1326 37.3716 19.3202 37.363 19.5121 37.3502C19.5463 37.3502 19.5761 37.3417 19.6102 37.3417C19.6998 37.3374 19.7893 37.3332 19.8789 37.3289C19.977 37.3204 20.0751 37.3033 20.1732 37.2905C20.3096 37.282 20.4461 37.2735 20.5826 37.2564C20.5996 37.2522 20.6124 37.2522 20.6252 37.2436H20.6636C20.7276 37.2351 20.7915 37.2223 20.8598 37.2138C20.911 37.2052 20.9664 37.2052 21.0176 37.1967C21.1796 37.1669 21.3417 37.137 21.5037 37.1072C21.6487 37.0816 21.798 37.0645 21.943 37.0346C22.3609 36.9494 22.7704 36.8513 23.1798 36.7361H23.184C23.2096 36.7276 23.2352 36.7191 23.2608 36.7148H23.2651C23.2821 36.7105 23.2949 36.7063 23.312 36.6977C23.6873 36.5911 24.0626 36.4717 24.4293 36.3395C24.4507 36.331 24.472 36.3267 24.4933 36.3182C24.5871 36.2841 24.6767 36.2414 24.7705 36.2073C25.0434 36.1049 25.3121 36.0026 25.5765 35.8874C25.6533 35.8533 25.7258 35.8192 25.8026 35.7851C26.1054 35.6486 26.4039 35.5079 26.6982 35.3586C26.7365 35.3373 26.7749 35.316 26.8133 35.2947C27.1374 35.1241 27.4573 34.9449 27.7729 34.7573C27.7814 34.753 27.7899 34.7445 27.7984 34.7403C28.7665 34.156 29.6834 33.4822 30.5321 32.7188L30.6131 32.6505L30.6046 32.642C31.2315 32.0748 31.82 31.4607 32.3659 30.8039L32.4384 30.7229L31.8456 30.2325L31.7518 30.2964ZM3.91613 30.3903C3.89054 30.3945 3.86496 30.3945 3.83937 30.3945C3.42143 30.3945 3.08452 30.0576 3.08452 29.6397C3.08452 29.226 3.42143 28.8848 3.83937 28.8848C4.25305 28.8848 4.59422 29.226 4.59422 29.6397C4.59422 29.7335 4.57716 29.8316 4.54304 29.9126C4.44495 30.1728 4.20187 30.3647 3.91613 30.3903Z" fill="#006EF2"/>
<path d="M2.96936 27.213C2.96936 26.8334 2.66231 26.5264 2.28275 26.5264C1.90319 26.5264 1.59613 26.8334 1.59613 27.213C1.59613 27.5925 1.90319 27.8996 2.28275 27.8996C2.66231 27.8996 2.96936 27.5925 2.96936 27.213Z" fill="#006EF2"/>
<path d="M33.4321 28.1982C33.0526 28.1982 32.7455 28.5053 32.7455 28.8849C32.7455 29.2644 33.0526 29.5715 33.4321 29.5715C33.8117 29.5715 34.1187 29.2644 34.1187 28.8849C34.1187 28.5053 33.8117 28.1982 33.4321 28.1982Z" fill="#006EF2"/>
<path d="M19.3116 1.94452C19.6908 1.94452 19.9982 1.63712 19.9982 1.25791C19.9982 0.878704 19.6908 0.571289 19.3116 0.571289C18.9324 0.571289 18.6249 0.878704 18.6249 1.25791C18.6249 1.63712 18.9324 1.94452 19.3116 1.94452Z" fill="#006EF2"/>
<path d="M54.7035 16.3979H52.2599L48.2894 11.8944H45.5302V16.3979H43.4447V3.35645C44.1143 3.35645 45.1293 3.36072 46.4812 3.36498C47.8374 3.36925 48.8481 3.37351 49.5219 3.37351C50.9634 3.37351 52.0935 3.79145 52.9038 4.6316C53.7184 5.46748 54.1235 6.46968 54.1235 7.63821C54.1235 8.666 53.8335 9.55732 53.2578 10.3079C52.6778 11.0585 51.7865 11.5191 50.5838 11.6939L54.4775 16.0311L54.7035 16.3979ZM45.5302 5.2713V9.99658H49.5006C50.3194 9.99658 50.9421 9.77482 51.3643 9.32702C51.7865 8.87923 51.9997 8.32909 51.9997 7.67233C51.9997 7.02836 51.7865 6.46542 51.3643 5.98777C50.9421 5.51012 50.328 5.2713 49.5177 5.2713H45.5302Z" fill="#006EF2"/>
<path d="M56.7847 3.48431C57.1813 3.28387 57.5779 3.28387 57.9788 3.48431C58.3754 3.68476 58.5759 4.0302 58.5759 4.5249C58.5759 5.01961 58.3754 5.37357 57.9788 5.57401C57.5822 5.77872 57.1856 5.77872 56.7847 5.57401C56.3881 5.36931 56.1876 5.01961 56.1876 4.5249C56.1876 4.0302 56.3881 3.68476 56.7847 3.48431ZM56.4137 7.18607V16.3978H58.3328V7.18607H56.4137Z" fill="#006EF2"/>
<path d="M66.8154 9.47606C66.1928 8.90459 65.3868 8.62312 64.3931 8.62312C63.796 8.61033 63.3226 8.69989 62.9687 8.8918C62.6147 9.08371 62.4356 9.36092 62.4356 9.71915C62.4484 10.3759 63.1137 10.7683 64.4315 10.8919C64.956 10.9431 65.4038 11.0071 65.7834 11.0881C66.1629 11.1691 66.5681 11.3056 66.9946 11.4975C67.421 11.6894 67.7537 11.9794 67.984 12.3633C68.2143 12.7471 68.3294 13.2162 68.3294 13.7749C68.3166 14.6449 67.9584 15.3443 67.2462 15.8774C66.5382 16.4105 65.5915 16.6791 64.4101 16.6791C62.619 16.6791 61.2202 16.1162 60.2137 14.9861L61.2201 13.6299C62.0176 14.5084 63.0923 14.9647 64.4443 14.9861C64.9688 14.9861 65.4209 14.888 65.8047 14.6875C66.1885 14.4871 66.389 14.1928 66.4018 13.7962C66.4145 13.3996 66.244 13.1096 65.89 12.9219C65.536 12.7343 64.9987 12.6064 64.2779 12.5339C61.7916 12.2993 60.5421 11.3781 60.5293 9.77886C60.5293 8.84916 60.9174 8.14975 61.6935 7.68489C62.4697 7.22004 63.3568 6.98975 64.3504 6.98975C65.7919 6.98975 66.9732 7.39916 67.8901 8.21798L66.8154 9.47606Z" fill="#006EF2"/>
<path d="M71.6769 12.5296C71.7622 13.2247 72.0777 13.7834 72.6194 14.2056C73.161 14.6278 73.8476 14.8368 74.6792 14.8368C75.1782 14.8368 75.6771 14.7472 76.1804 14.5681C76.6836 14.389 77.0717 14.1502 77.3446 13.8516L78.5942 15.0628C78.1336 15.5575 77.5493 15.9413 76.8329 16.2185C76.1207 16.4915 75.3871 16.628 74.6408 16.628C73.1354 16.628 71.9327 16.1887 71.0329 15.3059C70.133 14.4274 69.681 13.2461 69.681 11.7705C69.681 10.3674 70.1288 9.22018 71.0244 8.32885C71.9199 7.43753 73.0799 6.98975 74.5086 6.98975C76.0482 6.98975 77.2508 7.45886 78.108 8.40136C78.9652 9.34386 79.3064 10.7214 79.1315 12.5339H71.6769V12.5296ZM77.2892 10.909C77.238 10.2011 76.9693 9.65518 76.4789 9.27136C75.9885 8.88754 75.353 8.69563 74.5683 8.69563C73.8476 8.69563 73.2292 8.88754 72.7132 9.27136C72.1971 9.65518 71.8645 10.2011 71.7152 10.909H77.2892Z" fill="#006EF2"/>
<path d="M82.8591 7.22461V12.1375C82.8591 12.9308 83.0808 13.5705 83.5201 14.0524C83.9636 14.5343 84.5735 14.7774 85.3582 14.7774C86.1045 14.7774 86.7143 14.513 87.192 13.9756C87.6696 13.4425 87.9085 12.7858 87.9085 12.0011V7.22461H89.8276V16.415H88.0961L87.9852 15.0589C87.1152 16.0525 86.0576 16.5472 84.8166 16.5472C83.6608 16.5472 82.7268 16.1549 82.0104 15.3745C81.2939 14.594 80.9399 13.5193 80.9399 12.1546V7.22461H82.8591Z" fill="#006EF2"/>
<path d="M92.4375 20.6581V7.22427H94.2458L94.3566 8.71266C94.6936 8.17957 95.1541 7.76588 95.7469 7.47588C96.3355 7.18588 96.9538 7.03662 97.6021 7.03662C98.971 7.04942 100.084 7.50148 100.95 8.3928C101.816 9.28413 102.246 10.4271 102.246 11.8174C102.246 13.2204 101.824 14.3676 100.98 15.259C100.135 16.1503 99.0094 16.5981 97.6063 16.5981C96.9709 16.5981 96.3525 16.4701 95.7512 16.2185C95.1456 15.9626 94.685 15.5746 94.3609 15.0543V20.6538H92.4375V20.6581ZM99.4999 13.9241C100.046 13.3782 100.319 12.6788 100.319 11.8216C100.319 10.9559 100.05 10.2479 99.5169 9.71059C98.9838 9.16898 98.2802 8.90029 97.4102 8.90029C96.5402 8.90029 95.8408 9.17751 95.3119 9.73618C94.7831 10.2949 94.5187 10.99 94.5187 11.8216C94.5187 12.6532 94.7916 13.3484 95.3375 13.9071C95.8834 14.4657 96.5743 14.7429 97.4059 14.7429C98.2588 14.7429 98.954 14.47 99.4999 13.9241Z" fill="#006EF2"/>
<path d="M52.2981 24.3727C51.9868 23.9249 51.5433 23.5752 50.9633 23.3236C50.3833 23.0677 49.7521 22.9355 49.0697 22.9227C48.1742 22.9227 47.4492 23.0976 46.8905 23.4515C46.3318 23.8055 46.0503 24.2874 46.0503 24.893C46.0503 25.4645 46.319 25.8781 46.8606 26.1383C47.4023 26.3984 48.187 26.6031 49.219 26.7524C49.9909 26.8633 50.6477 26.9955 51.1936 27.1405C51.7394 27.2898 52.2811 27.5115 52.8141 27.8015C53.3515 28.0915 53.7566 28.4881 54.0381 28.9914C54.3153 29.4946 54.4561 30.0917 54.4561 30.7868C54.4561 31.7165 54.1874 32.4927 53.6458 33.1111C53.1042 33.7337 52.4474 34.1687 51.6712 34.4246C50.895 34.6805 50.0208 34.8084 49.0527 34.8084C46.3787 34.8084 44.5108 33.8233 43.4403 31.8487L45.0055 30.8081C45.8499 32.2326 47.2061 32.949 49.0697 32.949C49.6412 32.949 50.1615 32.8893 50.6349 32.7614C51.1083 32.6377 51.5134 32.4031 51.8546 32.062C52.1958 31.7208 52.3664 31.2986 52.3664 30.7868C52.3664 30.13 52.0721 29.6439 51.4793 29.324C50.8908 29.0084 50.0719 28.7824 49.0271 28.6459C48.43 28.5734 47.9183 28.4839 47.4875 28.3858C47.0568 28.2877 46.609 28.1427 46.1356 27.9593C45.6622 27.7717 45.2827 27.5499 44.9884 27.2898C44.6984 27.0296 44.4553 26.6927 44.2634 26.2748C44.0715 25.8611 43.9734 25.3834 43.9734 24.8504C43.9734 24.2064 44.1227 23.6349 44.4212 23.1359C44.7198 22.6412 45.1164 22.2489 45.6153 21.9632C46.1143 21.6774 46.6474 21.4642 47.2189 21.3192C47.7903 21.1785 48.3874 21.106 49.01 21.106C51.3343 21.106 52.9549 21.8395 53.8761 23.3023L52.2981 24.3727Z" fill="#006EF2"/>
<path d="M56.3581 38.7748V25.341H58.1664L58.2772 26.8293C58.6141 26.2963 59.0747 25.8826 59.6675 25.5926C60.2561 25.3026 60.8744 25.1533 61.5227 25.1533C62.8916 25.1661 64.0047 25.6182 64.8705 26.5095C65.7362 27.4008 66.1669 28.5438 66.1669 29.934C66.1669 31.3371 65.7447 32.4843 64.9003 33.3757C64.0559 34.267 62.93 34.7148 61.5269 34.7148C60.8915 34.7148 60.2731 34.5868 59.6718 34.3352C59.0662 34.0793 58.6056 33.6912 58.2815 33.1709V38.7705H56.3581V38.7748ZM63.4247 32.0408C63.9706 31.4949 64.2435 30.7955 64.2435 29.9383C64.2435 29.0726 63.9749 28.3646 63.4418 27.8273C62.9087 27.2857 62.205 27.017 61.335 27.017C60.465 27.017 59.7656 27.2942 59.2368 27.8529C58.708 28.4115 58.4436 29.1067 58.4436 29.9383C58.4436 30.7699 58.7165 31.4651 59.2624 32.0237C59.8083 32.5824 60.4991 32.8596 61.3308 32.8596C62.1794 32.8596 62.8746 32.5867 63.4247 32.0408Z" fill="#006EF2"/>
<path d="M75.5921 25.3408H77.4558V34.5142H75.6305L75.5367 33.0258C75.2509 33.5845 74.8074 34.0109 74.2018 34.3095C73.6005 34.608 72.9864 34.7572 72.368 34.7572C70.9862 34.77 69.8561 34.3478 68.9733 33.4906C68.0905 32.6334 67.6512 31.4436 67.6512 29.9168C67.6512 28.4284 68.1033 27.2599 69.0031 26.407C69.903 25.5583 71.0374 25.1318 72.4064 25.1318C73.0631 25.1318 73.6815 25.2811 74.253 25.5796C74.8245 25.8782 75.2552 26.279 75.5367 26.7908L75.5921 25.3408ZM70.4276 27.712C69.8561 28.2621 69.5704 28.9999 69.5704 29.9168C69.5704 30.8337 69.8561 31.5715 70.4276 32.1302C70.999 32.6889 71.707 32.9661 72.5514 32.9661C73.0973 32.9661 73.5877 32.8552 74.0142 32.6334C74.4406 32.4117 74.7648 32.1174 74.9823 31.7592C75.1998 31.4009 75.3618 31.0043 75.4684 30.5779C75.575 30.1514 75.575 29.7206 75.4684 29.2856C75.3618 28.8506 75.1998 28.454 74.9823 28.0958C74.7648 27.7376 74.4406 27.4433 74.0142 27.2215C73.5834 26.9998 73.0973 26.8889 72.5514 26.8889C71.707 26.8846 70.999 27.1618 70.4276 27.712Z" fill="#006EF2"/>
<path d="M87.8357 33.3244C86.8676 34.2797 85.7033 34.7574 84.3514 34.7574C82.9611 34.7574 81.8054 34.3352 80.8842 33.4907C79.963 32.6463 79.5024 31.4608 79.5024 29.9383C79.5024 28.4158 79.963 27.2259 80.8842 26.3858C81.8054 25.5413 82.9611 25.1191 84.3514 25.1191C85.6436 25.1191 86.7524 25.5712 87.6693 26.4753L86.4368 27.759C85.8782 27.2131 85.1873 26.9402 84.3685 26.9402C83.5241 26.9402 82.8204 27.2174 82.2617 27.7675C81.703 28.3219 81.4216 29.0427 81.4216 29.934C81.4216 30.8637 81.703 31.5887 82.2617 32.1133C82.8204 32.6335 83.5155 32.8937 84.3514 32.8937C85.247 32.8937 85.972 32.6079 86.5307 32.0365L87.8357 33.3244Z" fill="#006EF2"/>
<path d="M90.7574 30.6463C90.8427 31.3414 91.1583 31.9001 91.6999 32.3223C92.2415 32.7445 92.9281 32.9535 93.7597 32.9535C94.2587 32.9535 94.7577 32.8639 95.2609 32.6848C95.7641 32.5057 96.1522 32.2669 96.4252 31.9684L97.6747 33.1795C97.2141 33.6742 96.6299 34.0581 95.9134 34.3353C95.2012 34.6082 94.4677 34.7447 93.7213 34.7447C92.2159 34.7447 91.0133 34.3054 90.1134 33.4226C89.2136 32.5441 88.7615 31.3628 88.7615 29.8872C88.7615 28.4841 89.2093 27.3369 90.1049 26.4456C91.0005 25.5542 92.1605 25.1064 93.5891 25.1064C95.1287 25.1064 96.3313 25.5756 97.1885 26.5181C98.0457 27.4606 98.3869 28.8381 98.2121 30.6506H90.7574V30.6463ZM96.3697 29.0257C96.3185 28.3178 96.0499 27.7719 95.5594 27.3881C95.069 27.0042 94.4335 26.8123 93.6488 26.8123C92.9281 26.8123 92.3097 27.0042 91.7937 27.3881C91.2777 27.7719 90.945 28.3178 90.7958 29.0257H96.3697Z" fill="#006EF2"/>
</svg>
